<?xml version="1.0" encoding="utf-8"?>
<!-- Generator: Adobe Illustrator 22.0.1, SVG Export Plug-In . SVG Version: 6.00 Build 0)  -->
<svg version="1.1" id="Livello_1" xmlns="http://www.w3.org/2000/svg" xmlns:xlink="http://www.w3.org/1999/xlink" x="0px" y="0px"
	 viewBox="0 0 223.3 239.5" style="enable-background:new 0 0 223.3 239.5;" xml:space="preserve">
<style type="text/css">
	.st0{fill:#B3DFF0;}
	.st1{fill:#F4F0EF;}
	.st2{fill:#029ECB;}
</style>
<path class="st1" d="M70.6,45.8c-5.9,10.3-3.2,23.1-5.5,34.7c-3.2,16-15.4,28.3-25.6,40.9c-10.2,12.7-19.2,29-14.5,44.6
	c3.1,10,11.5,17.7,20.9,22.3s19.9,6.5,30.2,8.4c16,2.9,32.1,5.8,48.1,8.7c13.8,2.5,28,5,41.9,2.5c13.8-2.5,27.5-11.2,31.8-24.5
	c5.1-15.6-3.4-32-8.7-47.6c-6-17.4-8.2-36.1-6.3-54.4c1.3-13.5,4.3-28.8-4.5-39.1c-7-8.1-19-9.7-29.7-9.4
	C126.6,33.6,84.4,21.6,70.6,45.8z"/>
</svg>
